Coordinates
version=1
nRows=24
nColumns=24
inDegrees=yes

Units are S.I. units (second, meters, Newtons, ...)
Angles are in degrees.

endheader
time	pelvis_tilt	pelvis_list	pelvis_rotation	pelvis_tx	pelvis_ty	pelvis_tz	hip_flexion_r	hip_adduction_r	hip_rotation_r	knee_angle_r	ankle_angle_r	subtalar_angle_r	mtp_angle_r	hip_flexion_l	hip_adduction_l	hip_rotation_l	knee_angle_l	ankle_angle_l	subtalar_angle_l	mtp_angle_l	lumbar_extension	lumbar_bending	lumbar_rotation
      0.98150000	     -3.76036823	     -2.30694439	      1.51406667	      0.50619185	      0.99403011	      0.33244257	     17.77924782	      6.44531468	      2.05511555	    -24.90363280	     10.98222407	    -15.15638622	      1.06461326	     16.25448717	     -3.88305180	     -0.52063939	    -69.05093184	     -0.08456329	     -6.72797008	      5.07095786	     -7.76941785	     11.30593749	     -4.58505444
      0.98566667	     -3.72492506	     -2.16789641	      1.34712541	      0.51076540	      0.99510069	      0.33294923	     17.23257575	      6.37349705	      2.26080902	    -24.47002856	     11.01238651	    -15.14463956	      1.08107819	     16.77081272	     -3.81862048	     -0.69480330	    -68.77052459	      0.58165297	     -6.49770521	      5.01461879	     -7.86674841	     11.07025519	     -4.24502961
      0.98983333	     -3.69417378	     -2.01498434	      1.17731626	      0.51533547	      0.99614132	      0.33344591	     16.69410222	      6.28170705	      2.46513396	    -24.04137174	     11.04676784	    -15.12588625	      1.09902905	     17.27817866	     -3.73965715	     -0.87527107	    -68.43627876	      1.22352271	     -6.27829049	      4.95612933	     -7.95385186	     10.81902476	     -3.91393537
      0.99400000	     -3.63641165	     -1.87383596	      1.01239628	      0.51992436	      0.99721843	      0.33392792	     16.11354655	      6.19823882	      2.66893414	    -23.58272569	     11.06158430	    -15.11371369	      1.12119435	     17.74231214	     -3.67600883	     -1.05266876	    -68.05056592	      1.84994413	     -6.06242241	      4.88216803	     -8.07313622	     10.59072272	     -3.56200902
      0.99816667	     -3.60978576	     -1.69683435	      0.83658749	      0.52447602	      0.99822372	      0.33439173	     15.58634857	      6.07078836	      2.87904496	    -23.16185602	     11.06866843	    -15.07372909	      1.13697932	     18.22555178	     -3.56605787	     -1.23745480	    -67.61086019	      2.45310728	     -5.89999861	      4.83711761	     -8.15741374	     10.32633133	     -3.33024047
      1.00233333	     -3.56964584	     -1.55974653	      0.67784200	      0.52908805	      0.99920386	      0.33486071	     15.02370963	      5.98029242	      3.06703643	    -22.69955642	     11.11434089	    -15.06489290	      1.16380255	     18.68703563	     -3.51518325	     -1.41927304	    -67.13878982	      3.02965847	     -5.66226832	      4.75524584	     -8.23512634	     10.08419325	     -2.93108025
      1.00650000	     -3.52819228	     -1.39486201	      0.51054816	      0.53366133	      1.00016259	      0.33531093	     14.47359468	      5.85644839	      3.26511364	    -22.25905115	     11.14056630	    -15.03793369	      1.19084002	     19.13164654	     -3.42494872	     -1.60124183	    -66.61175336	      3.57801940	     -5.49223599	      4.67524092	     -8.32384161	      9.82385554	     -2.63063942
      1.01066667	     -3.51136825	     -1.23313235	      0.34081638	      0.53824546	      1.00104381	      0.33572938	     13.96051193	      5.72530835	      3.43612201	    -21.83787380	     11.13090730	    -14.97134479	      1.20581549	     19.59148098	     -3.33757693	     -1.78925389	    -66.04556651	      4.10414755	     -5.40416827	      4.63564263	     -8.36370316	      9.59178078	     -2.45500886
      1.01483333	     -3.42660349	     -1.10168618	      0.19124407	      0.54284476	      1.00199747	      0.33615639	     13.34593789	      5.62874103	      3.63848547	    -21.35880568	     11.18452050	    -14.97036709	      1.23960074	     19.96823110	     -3.28465593	     -1.94641358	    -65.43953941	      4.59676762	     -5.20069799	      4.53679277	     -8.51647658	      9.35551138	     -2.03130346
      1.01900000	     -3.38906320	     -0.93645213	      0.02707722	      0.54743030	      1.00285969	      0.33655624	     12.80484827	      5.48823415	      3.82823433	    -20.92149984	     11.20574604	    -14.93756561	      1.27159577	     20.37813705	     -3.18908387	     -2.11868348	    -64.78009991	      5.04723342	     -5.10258795	      4.44318532	     -8.59384405	      9.10207944	     -1.74932880
      1.02316667	     -3.35560222	     -0.77719246	     -0.13442882	      0.55201118	      1.00365301	      0.33693559	     12.27584296	      5.34701913	      4.00380488	    -20.49758806	     11.23912857	    -14.87709470	      1.30675481	     20.78458827	     -3.09862528	     -2.28484002	    -64.08895702	      5.47047542	     -5.03004537	      4.34343923	     -8.66504667	      8.85749704	     -1.46308831
      1.02733333	     -3.29508149	     -0.63202612	     -0.29011638	      0.55660859	      1.00446771	      0.33729967	     11.71020988	      5.21577232	      4.17324678	    -20.05579584	     11.26572063	    -14.82057654	      1.34258356	     21.14717493	     -3.01865820	     -2.43610925	    -63.35457136	      5.85275687	     -4.99247481	      4.24067480	     -8.76594505	      8.63096590	     -1.19005604
      1.03150000	     -3.23599076	     -0.47562552	     -0.44668052	      0.56120685	      1.00524360	      0.33764133	     11.15428096	      5.06599693	      4.33569000	    -19.62892506	     11.30101704	    -14.74815296	      1.38123971	     21.49637560	     -2.92106403	     -2.58081677	    -62.57615487	      6.19345951	     -4.99144802	      4.13311796	     -8.86413382	      8.39374602	     -0.91665162
      1.03566667	     -3.16249897	     -0.33309301	     -0.60267410	      0.56579797	      1.00600336	      0.33796293	     10.58209083	      4.92548822	      4.49610908	    -19.19472771	     11.32305269	    -14.65532032	      1.43611532	     21.81977214	     -2.83201042	     -2.71035116	    -61.76410856	      6.50956016	     -5.03247819	      3.98149541	     -8.99245581	      8.17064380	     -0.61196562
      1.03983333	     -3.12884929	     -0.18256858	     -0.75685220	      0.57040455	      1.00664635	      0.33827063	     10.06669237	      4.77236054	      4.64003217	    -18.79395387	     11.38046442	    -14.58366289	      1.47823710	     22.17371923	     -2.73350102	     -2.83555281	    -60.91717832	      6.77371899	     -5.07490958	      3.86804955	     -9.04566304	      7.94358904	     -0.37913403
      1.04400000	     -3.05653455	     -0.03426445	     -0.91129625	      0.57501279	      1.00732117	      0.33854890	      9.50820036	      4.61370438	      4.77500629	    -18.38417900	     11.42766257	    -14.47573352	      1.51867562	     22.46967017	     -2.62828779	     -2.94674264	    -60.02593447	      7.00495884	     -5.16933071	      3.76198836	     -9.15443143	      7.72438178	     -0.13428317
      1.04816667	     -3.00673681	      0.10986233	     -1.06246442	      0.57961808	      1.00791057	      0.33881185	      8.98174045	      4.45508540	      4.89864025	    -17.98903886	     11.48174347	    -14.36164551	      1.55847266	     22.78015470	     -2.52230910	     -3.04033831	    -59.10559662	      7.20255702	     -5.29191179	      3.65872816	     -9.23561733	      7.50966712	      0.11545305
      1.05233333	     -2.95750141	      0.25264401	     -1.21978034	      0.58422674	      1.00846325	      0.33905467	      8.46180198	      4.29374632	      5.02729588	    -17.60363178	     11.50422213	    -14.22919458	      1.58882585	     23.07544639	     -2.41218762	     -3.12130336	    -58.14827468	      7.38049184	     -5.42772143	      3.58050599	     -9.31897173	      7.31294566	      0.31564339
      1.05650000	     -2.87950698	      0.36617240	     -1.35477116	      0.58884436	      1.00900351	      0.33926532	      7.89993940	      4.15677594	      5.13096868	    -17.19917073	     11.61107851	    -14.09709319	      1.63951891	     23.33485415	     -2.32174824	     -3.16418702	    -57.16999347	      7.49787261	     -5.62309151	      3.45179413	     -9.44403778	      7.11583693	      0.63164049
      1.06066667	     -2.83943581	      0.50107693	     -1.50703117	      0.59346713	      1.00945445	      0.33947378	      7.39681310	      3.99419621	      5.23178411	    -16.82491861	     11.63170351	    -13.95639125	      1.66868957	     23.61405928	     -2.21212756	     -3.21975099	    -56.14736758	      7.61712595	     -5.79176184	      3.37587574	     -9.50421239	      6.92472165	      0.80651893
      1.06483333	     -2.75907328	      0.61345016	     -1.64442282	      0.59808551	      1.00990822	      0.33964817	      6.84509495	      3.84906150	      5.31785750	    -16.44116168	     11.71036298	    -13.80731434	      1.70238877	     23.84044259	     -2.11370236	     -3.23700740	    -55.09706166	      7.68436795	     -6.01825284	      3.28906489	     -9.62424671	      6.75323060	      1.05182922
      1.06900000	     -2.70369793	      0.72474507	     -1.77659368	      0.60271431	      1.01028346	      0.33979960	      6.32546638	      3.70138259	      5.39065141	    -16.06972027	     11.79594557	    -13.65245797	      1.73734330	     24.08067685	     -2.00979433	     -3.23405748	    -54.01665791	      7.72128624	     -6.25065697	      3.19841458	     -9.70910306	      6.58155270	      1.29373509
      1.07316667	     -2.62092537	      0.82909005	     -1.89729515	      0.60735166	      1.01065175	      0.33991884	      5.77730168	      3.55435927	      5.43461440	    -15.70211637	     11.93176134	    -13.48495139	      1.78242122	     24.27827619	     -1.90549122	     -3.21047242	    -52.90385471	      7.71982531	     -6.52161321	      3.08237664	     -9.83045408	      6.40979566	      1.55994941
      1.07733333	     -2.56891811	      0.91208290	     -2.02093109	      0.61197652	      1.01091744	      0.34002834	      5.26663202	      3.43011231	      5.49067501	    -15.34093464	     12.02553283	    -13.31349229	      1.82752055	     24.50004223	     -1.82218256	     -3.16749119	    -51.77403736	      7.71115319	     -6.77385756	      2.96368045	     -9.91833422	      6.27376408	      1.79658218
